<?xml version="1.0" encoding="UTF-8"?>
<svg id="Layer_1" xmlns="http://www.w3.org/2000/svg" version="1.1" viewBox="0 0 150 50">
  <!-- Generator: Adobe Illustrator 29.0.1, SVG Export Plug-In . SVG Version: 2.1.0 Build 192)  -->
  <defs>
    <style>
      .st0 {
        fill: #231f20;
      }
    </style>
  </defs>
  <g>
    <path class="st0" d="M10.92,20.6v.37H2.05V7.73h8.79v.37H2.43v5.79h7.92v.37H2.43v6.34h8.49Z"/>
    <path class="st0" d="M19.32,19.16c-.21.43-.49.79-.83,1.08-.34.3-.74.53-1.19.69-.45.16-.95.24-1.49.24-.68,0-1.28-.13-1.81-.38-.53-.25-.97-.6-1.33-1.03-.36-.43-.63-.94-.82-1.51-.19-.57-.28-1.19-.28-1.84,0-.69.09-1.35.27-1.98.18-.62.45-1.17.82-1.65.36-.48.83-.86,1.39-1.14.56-.28,1.22-.43,1.97-.43.45,0,.87.07,1.28.2.41.14.77.33,1.09.59.32.26.59.58.81.97.22.39.36.84.42,1.34h-.37c-.07-.47-.21-.87-.41-1.21-.2-.34-.44-.62-.72-.85-.28-.23-.61-.4-.96-.51-.36-.11-.74-.17-1.13-.17-.75,0-1.39.15-1.92.44-.53.29-.95.67-1.26,1.13-.32.46-.54.98-.69,1.56-.14.57-.21,1.14-.21,1.7s.08,1.14.25,1.67c.17.53.41,1,.73,1.41.32.41.72.73,1.21.97.48.24,1.04.36,1.67.36.47,0,.91-.07,1.32-.21.41-.14.77-.35,1.08-.62.32-.27.57-.6.77-.97.2-.38.32-.81.35-1.29h.37c-.05.53-.18,1.01-.39,1.44Z"/>
    <path class="st0" d="M21.67,7.73v6.06h.04c.09-.37.23-.71.42-1.02s.43-.58.72-.82c.29-.23.63-.42,1.01-.55.38-.13.81-.19,1.28-.19.49,0,.95.07,1.36.22.41.15.77.37,1.08.66.3.29.54.65.7,1.08.17.43.25.92.25,1.47v6.32h-.37v-6.27c0-.56-.08-1.03-.24-1.42-.16-.39-.38-.71-.66-.96-.28-.25-.6-.44-.96-.56-.36-.12-.75-.18-1.16-.18-.57,0-1.07.11-1.5.32-.43.22-.79.51-1.09.87-.29.36-.51.79-.66,1.27-.15.48-.22.99-.22,1.52v5.4h-.37V7.73h.37Z"/>
    <path class="st0" d="M30.35,14.32c.19-.6.46-1.13.83-1.59.36-.46.81-.83,1.34-1.1s1.15-.42,1.85-.42,1.3.14,1.84.42c.53.28.98.65,1.34,1.1s.64.99.83,1.59c.19.6.28,1.23.28,1.88s-.09,1.28-.28,1.88c-.19.6-.46,1.13-.83,1.59-.36.46-.81.82-1.34,1.09-.53.27-1.15.41-1.85.41s-1.3-.14-1.84-.41c-.53-.27-.98-.64-1.34-1.09-.36-.46-.64-.99-.83-1.59-.19-.6-.28-1.23-.28-1.88s.09-1.28.28-1.88ZM30.69,17.94c.17.56.42,1.05.75,1.47s.74.77,1.23,1.02c.49.25,1.05.38,1.7.38s1.19-.13,1.68-.38c.49-.25.9-.59,1.23-1.02.33-.43.58-.92.75-1.47s.25-1.14.25-1.74-.08-1.17-.25-1.72-.42-1.05-.75-1.47c-.33-.43-.74-.77-1.23-1.03-.49-.26-1.05-.39-1.68-.39s-1.21.13-1.7.39c-.49.26-.9.6-1.23,1.03-.33.43-.58.92-.75,1.47s-.25,1.13-.25,1.72.08,1.19.25,1.74Z"/>
    <path class="st0" d="M40.24,18.07c.14.55.36,1.03.66,1.44.3.41.68.73,1.15.96.47.24,1.04.35,1.72.35,1,0,1.83-.26,2.49-.79.66-.53,1.07-1.31,1.23-2.36h.37c-.14,1.11-.57,1.97-1.32,2.59-.74.61-1.66.92-2.74.92-.74.01-1.38-.11-1.9-.35-.53-.25-.95-.6-1.29-1.05-.33-.45-.58-.98-.74-1.59-.16-.61-.24-1.27-.24-1.97,0-.79.12-1.5.35-2.11s.54-1.14.93-1.57c.38-.43.83-.75,1.34-.97.51-.22,1.03-.33,1.56-.33.74,0,1.38.14,1.92.43s.98.66,1.32,1.13c.34.47.59,1.01.74,1.61.15.61.22,1.24.19,1.89h-7.97c.01.64.09,1.24.23,1.79ZM47.37,14.25c-.16-.53-.4-.99-.71-1.38-.32-.4-.71-.71-1.18-.94-.47-.23-1.01-.34-1.63-.34-.52,0-1,.1-1.46.3-.45.2-.85.49-1.19.86-.34.38-.62.83-.83,1.36-.21.53-.33,1.13-.37,1.8h7.6c0-.58-.08-1.13-.24-1.66Z"/>
    <path class="st0" d="M55.46,13.03c-.15-.33-.36-.61-.63-.83s-.6-.37-.97-.47c-.38-.1-.79-.15-1.25-.15-.67,0-1.19.09-1.58.27-.38.18-.67.38-.85.61s-.3.45-.35.68c-.05.22-.07.38-.07.46,0,.47.1.83.29,1.09.19.25.45.45.77.58.33.14.7.25,1.08.35.39.1.84.22,1.36.35.37.1.74.2,1.1.31.36.11.69.25.98.44.29.19.53.42.7.7.18.28.27.66.27,1.11,0,.48-.1.89-.31,1.22s-.47.61-.8.82c-.33.21-.7.36-1.11.45s-.83.14-1.23.14c-1.27,0-2.23-.28-2.88-.83-.65-.56-.97-1.43-.97-2.63h.37c0,1.08.3,1.86.9,2.36.6.5,1.46.75,2.59.75.35,0,.7-.04,1.07-.12.36-.08.7-.21.99-.39.3-.18.54-.41.73-.7.19-.28.29-.63.29-1.04s-.1-.76-.29-1.02-.44-.47-.74-.64c-.3-.17-.65-.3-1.05-.4-.4-.1-.8-.2-1.21-.3-.46-.11-.86-.22-1.21-.32-.35-.1-.66-.21-.93-.33-.4-.17-.69-.41-.87-.72-.19-.31-.28-.72-.28-1.24,0-.26.06-.53.17-.82.11-.28.3-.54.56-.78.26-.23.59-.43,1-.57.41-.15.91-.22,1.5-.22,1.06,0,1.9.24,2.52.72.62.48.93,1.25.93,2.32h-.37c0-.48-.07-.89-.22-1.22Z"/>
    <path class="st0" d="M62.99,14.32c.19-.6.46-1.13.83-1.59.36-.46.81-.83,1.34-1.1s1.15-.42,1.85-.42,1.3.14,1.84.42c.53.28.98.65,1.34,1.1s.64.99.83,1.59c.19.6.28,1.23.28,1.88s-.09,1.28-.28,1.88c-.19.6-.46,1.13-.83,1.59-.36.46-.81.82-1.34,1.09-.53.27-1.15.41-1.85.41s-1.3-.14-1.84-.41c-.53-.27-.98-.64-1.34-1.09-.36-.46-.64-.99-.83-1.59-.19-.6-.28-1.23-.28-1.88s.09-1.28.28-1.88ZM63.33,17.94c.17.56.42,1.05.75,1.47s.74.77,1.23,1.02c.49.25,1.05.38,1.7.38s1.19-.13,1.68-.38c.49-.25.9-.59,1.23-1.02.33-.43.58-.92.75-1.47s.25-1.14.25-1.74-.08-1.17-.25-1.72-.42-1.05-.75-1.47c-.33-.43-.74-.77-1.23-1.03-.49-.26-1.05-.39-1.68-.39s-1.21.13-1.7.39c-.49.26-.9.6-1.23,1.03-.33.43-.58.92-.75,1.47s-.25,1.13-.25,1.72.08,1.19.25,1.74Z"/>
    <path class="st0" d="M71.81,11.44h1.61v-2.11c0-.38.06-.68.18-.89.12-.21.27-.37.45-.47.19-.11.39-.17.61-.19.22-.02.43-.04.63-.04.17,0,.32,0,.45.03s.24.03.34.05v.37c-.17-.02-.33-.04-.46-.06-.14-.01-.27-.02-.41-.02-.59,0-.98.11-1.16.32-.18.22-.27.56-.27,1.03v1.98h2.06v.37h-2.06v9.16h-.37v-9.16h-1.61v-.37Z"/>
    <path class="st0" d="M82.79,19.11c0,.36.04.64.12.83.08.2.18.35.31.44.12.1.26.16.41.18.15.02.3.03.45.03.19,0,.35,0,.5,0,.15,0,.25-.02.32-.05v.37c-.11.01-.22.02-.32.04-.11.01-.3.02-.58.02-.43,0-.8-.13-1.1-.38-.3-.25-.45-.72-.45-1.4v-7.38h-1.74v-.37h1.74v-3h.37v3h2.15v.37h-2.15v7.31Z"/>
    <path class="st0" d="M86.61,7.73v6.06h.04c.09-.37.23-.71.42-1.02s.43-.58.72-.82c.29-.23.63-.42,1.01-.55.38-.13.81-.19,1.28-.19.49,0,.95.07,1.36.22.41.15.77.37,1.08.66.3.29.54.65.7,1.08.17.43.25.92.25,1.47v6.32h-.37v-6.27c0-.56-.08-1.03-.24-1.42-.16-.39-.38-.71-.66-.96-.28-.25-.6-.44-.96-.56-.36-.12-.75-.18-1.16-.18-.57,0-1.07.11-1.5.32-.43.22-.79.51-1.09.87-.29.36-.51.79-.66,1.27-.15.48-.22.99-.22,1.52v5.4h-.37V7.73h.37Z"/>
    <path class="st0" d="M95.56,18.07c.14.55.36,1.03.66,1.44.3.41.68.73,1.15.96.47.24,1.04.35,1.72.35,1,0,1.83-.26,2.49-.79.66-.53,1.07-1.31,1.23-2.36h.37c-.14,1.11-.57,1.97-1.32,2.59-.74.61-1.66.92-2.74.92-.74.01-1.38-.11-1.9-.35-.53-.25-.95-.6-1.29-1.05-.33-.45-.58-.98-.74-1.59-.16-.61-.24-1.27-.24-1.97,0-.79.12-1.5.35-2.11s.54-1.14.93-1.57.83-.75,1.34-.97c.51-.22,1.03-.33,1.56-.33.74,0,1.38.14,1.92.43s.98.66,1.32,1.13c.34.47.59,1.01.74,1.61s.22,1.24.19,1.89h-7.97c.01.64.09,1.24.23,1.79ZM102.69,14.25c-.16-.53-.4-.99-.71-1.38s-.71-.71-1.18-.94c-.47-.23-1.01-.34-1.63-.34-.52,0-1,.1-1.46.3-.45.2-.85.49-1.19.86-.34.38-.62.83-.83,1.36-.21.53-.33,1.13-.37,1.8h7.6c0-.58-.08-1.13-.24-1.66Z"/>
  </g>
  <g>
    <path class="st0" d="M10.25,42.88v2.05h-6.23v-2.05H1.97v-14.49h2.1v14.46h6.13v-14.46h2.1v14.49h-2.05Z"/>
    <path class="st0" d="M24.64,44.94v-10.31h-6.13v10.31h-2.1v-12.41h8.28v2.05h2.05v10.36h-2.1Z"/>
    <path class="st0" d="M32.9,44.94v-2.05h-2.05v-8.31h2.05v-2.05h6.18v-4.13h2.1v16.54h-8.28ZM39.08,34.63h-6.13v8.23h6.13v-8.23Z"/>
    <path class="st0" d="M53.57,42.88v2.05h-6.23v-2.05h-2.05v-8.31h2.05v-2.05h6.23v2.05h2.05v4.18h-8.23v4.1h6.13v-2.05h2.1v2.08h-2.05ZM53.52,34.63h-6.13v2.03h6.13v-2.03Z"/>
    <path class="st0" d="M63.88,34.63v2.05h-2.05v8.26h-2.1v-12.41h2.1v2.05h2v-2.05h4.18v2.1h-4.13Z"/>
    <path class="st0" d="M78.32,47.01v2.05h-6.23v-2.08h6.18v-2.05h-6.18v-2.05h-2.05v-8.31h2.05v-2.05h8.28v14.49h-2.05ZM78.27,34.63h-6.13v8.23h6.13v-8.23Z"/>
    <path class="st0" d="M88.63,34.63v2.05h-2.05v8.26h-2.1v-12.41h2.1v2.05h2v-2.05h4.18v2.1h-4.13Z"/>
    <path class="st0" d="M103.07,42.88v2.05h-6.23v-2.05h-2.05v-8.31h2.05v-2.05h6.23v2.05h2.05v8.31h-2.05ZM103.02,34.63h-6.13v8.23h6.13v-8.23Z"/>
    <path class="st0" d="M111.28,44.94v-2.05h-2.05v-10.36h2.1v10.33h6.13v-10.33h2.1v12.41h-8.28Z"/>
    <path class="st0" d="M131.9,44.94v-10.31h-6.13v10.31h-2.1v-12.41h8.28v2.05h2.05v10.36h-2.1Z"/>
    <path class="st0" d="M140.15,44.94v-2.05h-2.05v-8.31h2.05v-2.05h6.18v-4.13h2.1v16.54h-8.28ZM146.34,34.63h-6.13v8.23h6.13v-8.23Z"/>
  </g>
</svg>