<?xml version="1.0" encoding="UTF-8"?>
<svg id="Layer_1" xmlns="http://www.w3.org/2000/svg" version="1.1" viewBox="0 0 150 50">
  <!-- Generator: Adobe Illustrator 29.0.1, SVG Export Plug-In . SVG Version: 2.1.0 Build 192)  -->
  <defs>
    <style>
      .st0 {
        fill: #fff;
      }
    </style>
  </defs>
  <path class="st0" d="M10.9,20.6v.4H2V7.7h8.8v.4H2.4v5.8h7.9v.4H2.4v6.3h8.5Z"/>
  <path class="st0" d="M19.3,19.2c-.2.4-.5.8-.8,1.1-.3.3-.7.5-1.2.7s-1,.2-1.5.2-1.3-.1-1.8-.4-1-.6-1.3-1-.6-.9-.8-1.5-.3-1.2-.3-1.8,0-1.4.3-2c.2-.6.4-1.2.8-1.6.4-.5.8-.9,1.4-1.1.6-.3,1.2-.4,2-.4s.9,0,1.3.2c.4.1.8.3,1.1.6s.6.6.8,1,.4.8.4,1.3h-.4c0-.5-.2-.9-.4-1.2s-.4-.6-.7-.9c-.3-.2-.6-.4-1-.5-.4-.1-.7-.2-1.1-.2-.8,0-1.4.1-1.9.4s-.9.7-1.3,1.1c-.3.5-.5,1-.7,1.6-.1.6-.2,1.1-.2,1.7s0,1.1.2,1.7.4,1,.7,1.4.7.7,1.2,1c.5.2,1,.4,1.7.4s.9,0,1.3-.2.8-.4,1.1-.6c.3-.3.6-.6.8-1,.2-.4.3-.8.4-1.3h.4c0,.5-.2,1-.4,1.4h0Z"/>
  <path class="st0" d="M21.7,7.7v6.1h0c0-.4.2-.7.4-1s.4-.6.7-.8c.3-.2.6-.4,1-.6.4-.1.8-.2,1.3-.2s1,0,1.4.2c.4.1.8.4,1.1.7.3.3.5.6.7,1.1.2.4.2.9.2,1.5v6.3h-.4v-6.3c0-.6,0-1-.2-1.4s-.4-.7-.7-1-.6-.4-1-.6c-.4-.1-.8-.2-1.2-.2s-1.1.1-1.5.3c-.4.2-.8.5-1.1.9-.3.4-.5.8-.7,1.3s-.2,1-.2,1.5v5.4h-.4V7.7s.4,0,.4,0Z"/>
  <path class="st0" d="M30.4,14.3c.2-.6.5-1.1.8-1.6.4-.5.8-.8,1.3-1.1.5-.3,1.2-.4,1.8-.4s1.3.1,1.8.4c.5.3,1,.6,1.3,1.1s.6,1,.8,1.6c.2.6.3,1.2.3,1.9s0,1.3-.3,1.9c-.2.6-.5,1.1-.8,1.6-.4.5-.8.8-1.3,1.1s-1.2.4-1.8.4-1.3-.1-1.8-.4c-.5-.3-1-.6-1.3-1.1-.4-.5-.6-1-.8-1.6s-.3-1.2-.3-1.9,0-1.3.3-1.9ZM30.7,17.9c.2.6.4,1,.8,1.5s.7.8,1.2,1,1,.4,1.7.4,1.2-.1,1.7-.4.9-.6,1.2-1c.3-.4.6-.9.8-1.5s.2-1.1.2-1.7,0-1.2-.2-1.7-.4-1.1-.8-1.5c-.3-.4-.7-.8-1.2-1-.5-.3-1-.4-1.7-.4s-1.2.1-1.7.4-.9.6-1.2,1c-.3.4-.6.9-.8,1.5s-.2,1.1-.2,1.7,0,1.2.2,1.7Z"/>
  <path class="st0" d="M40.2,18.1c.1.5.4,1,.7,1.4s.7.7,1.2,1c.5.2,1,.4,1.7.4,1,0,1.8-.3,2.5-.8s1.1-1.3,1.2-2.4h.4c-.1,1.1-.6,2-1.3,2.6-.7.6-1.7.9-2.7.9-.7,0-1.4-.1-1.9-.4-.5-.2-1-.6-1.3-1-.3-.5-.6-1-.7-1.6s-.2-1.3-.2-2,.1-1.5.3-2.1.5-1.1.9-1.6c.4-.4.8-.8,1.3-1s1-.3,1.6-.3,1.4.1,1.9.4,1,.7,1.3,1.1.6,1,.7,1.6c.2.6.2,1.2.2,1.9h-8c0,.6,0,1.2.2,1.8h0ZM47.4,14.2c-.2-.5-.4-1-.7-1.4-.3-.4-.7-.7-1.2-.9s-1-.3-1.6-.3-1,.1-1.5.3c-.5.2-.8.5-1.2.9-.3.4-.6.8-.8,1.4-.2.5-.3,1.1-.4,1.8h7.6c0-.6,0-1.1-.2-1.7h0Z"/>
  <path class="st0" d="M55.5,13c-.2-.3-.4-.6-.6-.8s-.6-.4-1-.5c-.4-.1-.8-.1-1.2-.1-.7,0-1.2,0-1.6.3-.4.2-.7.4-.8.6s-.3.4-.3.7c0,.2,0,.4,0,.5,0,.5,0,.8.3,1.1.2.2.5.4.8.6.3.1.7.2,1.1.4.4.1.8.2,1.4.4.4.1.7.2,1.1.3.4.1.7.2,1,.4s.5.4.7.7c.2.3.3.7.3,1.1s0,.9-.3,1.2-.5.6-.8.8c-.3.2-.7.4-1.1.5s-.8.1-1.2.1c-1.3,0-2.2-.3-2.9-.8-.7-.6-1-1.4-1-2.6h.4c0,1.1.3,1.9.9,2.4.6.5,1.5.8,2.6.8s.7,0,1.1-.1c.4,0,.7-.2,1-.4.3-.2.5-.4.7-.7.2-.3.3-.6.3-1s0-.8-.3-1-.4-.5-.7-.6c-.3-.2-.7-.3-1-.4-.4-.1-.8-.2-1.2-.3-.5-.1-.9-.2-1.2-.3-.3-.1-.7-.2-.9-.3-.4-.2-.7-.4-.9-.7-.2-.3-.3-.7-.3-1.2s0-.5.2-.8c.1-.3.3-.5.6-.8.3-.2.6-.4,1-.6.4-.1.9-.2,1.5-.2,1.1,0,1.9.2,2.5.7.6.5.9,1.2.9,2.3h-.4c0-.5,0-.9-.2-1.2h0Z"/>
  <path class="st0" d="M63,14.3c.2-.6.5-1.1.8-1.6.4-.5.8-.8,1.3-1.1s1.2-.4,1.8-.4,1.3.1,1.8.4c.5.3,1,.6,1.3,1.1s.6,1,.8,1.6.3,1.2.3,1.9,0,1.3-.3,1.9c-.2.6-.5,1.1-.8,1.6-.4.5-.8.8-1.3,1.1s-1.2.4-1.8.4-1.3-.1-1.8-.4c-.5-.3-1-.6-1.3-1.1-.4-.5-.6-1-.8-1.6-.2-.6-.3-1.2-.3-1.9s0-1.3.3-1.9ZM63.3,17.9c.2.6.4,1,.8,1.5s.7.8,1.2,1c.5.2,1.1.4,1.7.4s1.2-.1,1.7-.4.9-.6,1.2-1,.6-.9.8-1.5.2-1.1.2-1.7,0-1.2-.2-1.7-.4-1.1-.8-1.5c-.3-.4-.7-.8-1.2-1-.5-.3-1.1-.4-1.7-.4s-1.2.1-1.7.4-.9.6-1.2,1c-.3.4-.6.9-.8,1.5s-.2,1.1-.2,1.7,0,1.2.2,1.7Z"/>
  <path class="st0" d="M71.8,11.4h1.6v-2.1c0-.4,0-.7.2-.9s.3-.4.4-.5c.2-.1.4-.2.6-.2s.4,0,.6,0,.3,0,.4,0,.2,0,.3,0v.4c-.2,0-.3,0-.5,0-.1,0-.3,0-.4,0-.6,0-1,.1-1.2.3-.2.2-.3.6-.3,1v2h2.1v.4h-2.1v9.2h-.4v-9.2h-1.6v-.4h0Z"/>
  <path class="st0" d="M82.8,19.1c0,.4,0,.6.1.8,0,.2.2.4.3.4.1.1.3.2.4.2s.3,0,.4,0h.5c.2,0,.2,0,.3,0v.4c-.1,0-.2,0-.3,0-.1,0-.3,0-.6,0-.4,0-.8-.1-1.1-.4-.3-.2-.4-.7-.4-1.4v-7.4h-1.7v-.4h1.7v-3h.4v3h2.2v.4h-2.2v7.3h0Z"/>
  <path class="st0" d="M86.6,7.7v6.1h0c0-.4.2-.7.4-1s.4-.6.7-.8c.3-.2.6-.4,1-.6.4-.1.8-.2,1.3-.2s.9,0,1.4.2c.4.1.8.4,1.1.7.3.3.5.6.7,1.1.2.4.2.9.2,1.5v6.3h-.4v-6.3c0-.6,0-1-.2-1.4-.2-.4-.4-.7-.7-1-.3-.2-.6-.4-1-.6-.4-.1-.8-.2-1.2-.2s-1.1.1-1.5.3c-.4.2-.8.5-1.1.9-.3.4-.5.8-.7,1.3s-.2,1-.2,1.5v5.4h-.4V7.7h.4Z"/>
  <path class="st0" d="M95.6,18.1c.1.5.4,1,.7,1.4s.7.7,1.2,1c.5.2,1,.4,1.7.4,1,0,1.8-.3,2.5-.8.7-.5,1.1-1.3,1.2-2.4h.4c-.1,1.1-.6,2-1.3,2.6-.7.6-1.7.9-2.7.9-.7,0-1.4-.1-1.9-.4-.5-.2-.9-.6-1.3-1-.3-.5-.6-1-.7-1.6-.2-.6-.2-1.3-.2-2s.1-1.5.3-2.1.5-1.1.9-1.6.8-.8,1.3-1c.5-.2,1-.3,1.6-.3s1.4.1,1.9.4,1,.7,1.3,1.1.6,1,.7,1.6.2,1.2.2,1.9h-8c0,.6,0,1.2.2,1.8h0ZM102.7,14.2c-.2-.5-.4-1-.7-1.4s-.7-.7-1.2-.9-1-.3-1.6-.3-1,.1-1.5.3c-.4.2-.8.5-1.2.9-.3.4-.6.8-.8,1.4s-.3,1.1-.4,1.8h7.6c0-.6,0-1.1-.2-1.7h0Z"/>
  <path class="st0" d="M10.2,42.9v2h-6.2v-2H2v-14.5h2.1v14.5h6.1v-14.5h2.1v14.5s-2.1,0-2,0Z"/>
  <path class="st0" d="M24.6,44.9v-10.3h-6.1v10.3h-2.1v-12.4h8.3v2h2v10.4s-2.1,0-2.1,0Z"/>
  <path class="st0" d="M32.9,44.9v-2h-2v-8.3h2v-2h6.2v-4.1h2.1v16.5h-8.3ZM39.1,34.6h-6.1v8.2h6.1v-8.2Z"/>
  <path class="st0" d="M53.6,42.9v2h-6.2v-2h-2v-8.3h2v-2h6.2v2h2v4.2h-8.2v4.1h6.1v-2h2.1v2.1s-2,0-2,0ZM53.5,34.6h-6.1v2h6.1v-2Z"/>
  <path class="st0" d="M63.9,34.6v2h-2v8.3h-2.1v-12.4h2.1v2h2v-2h4.2v2.1h-4.1Z"/>
  <path class="st0" d="M78.3,47v2h-6.2v-2.1h6.2v-2h-6.2v-2h-2.1v-8.3h2.1v-2h8.3v14.5s-2.1,0-2,0ZM78.3,34.6h-6.1v8.2h6.1v-8.2Z"/>
  <path class="st0" d="M88.6,34.6v2h-2.1v8.3h-2.1v-12.4h2.1v2h2v-2h4.2v2.1h-4.1Z"/>
  <path class="st0" d="M103.1,42.9v2h-6.2v-2h-2.1v-8.3h2.1v-2h6.2v2h2.1v8.3h-2.1ZM103,34.6h-6.1v8.2h6.1v-8.2Z"/>
  <path class="st0" d="M111.3,44.9v-2h-2.1v-10.4h2.1v10.3h6.1v-10.3h2.1v12.4s-8.3,0-8.3,0Z"/>
  <path class="st0" d="M131.9,44.9v-10.3h-6.1v10.3h-2.1v-12.4h8.3v2h2.1v10.4h-2.1Z"/>
  <path class="st0" d="M140.1,44.9v-2h-2.1v-8.3h2.1v-2h6.2v-4.1h2.1v16.5h-8.3ZM146.3,34.6h-6.1v8.2h6.1v-8.2Z"/>
</svg>